<?xml version="1.0" encoding="UTF-8" standalone="no"?>
<svg
   id="svg8"
   version="1.1"
   viewBox="0 0 297 210"
   height="210mm"
   width="297mm"
   xml:space="preserve"
   xmlns="http://www.w3.org/2000/svg"
   xmlns:svg="http://www.w3.org/2000/svg"
   xmlns:rdf="http://www.w3.org/1999/02/22-rdf-syntax-ns#"
   xmlns:cc="http://creativecommons.org/ns#"
   xmlns:dc="http://purl.org/dc/elements/1.1/"><defs
     id="defs2"><rect
       x="37145.941"
       y="20148.799"
       width="208.40617"
       height="45.402912"
       id="rect371-7-8-5-3-3-1-2-2-3" /><rect
       id="rect3671-7-1"
       height="43.821617"
       width="80.537109"
       y="57.877605"
       x="10" /><rect
       id="rect442-4"
       height="43.821617"
       width="80.537109"
       y="57.877605"
       x="10" /><rect
       id="rect443-6"
       height="43.821617"
       width="80.537109"
       y="57.877605"
       x="10" /><rect
       id="rect446-0"
       height="43.821617"
       width="80.537109"
       y="57.877605"
       x="10" /><rect
       id="rect447-3"
       height="43.821617"
       width="80.537109"
       y="57.877605"
       x="10" /><rect
       id="rect448-2"
       height="43.821617"
       width="80.537109"
       y="57.877605"
       x="10" /></defs><metadata
     id="metadata5"><rdf:RDF><cc:Work
         rdf:about=""><dc:format>image/svg+xml</dc:format><dc:type
           rdf:resource="http://purl.org/dc/dcmitype/StillImage" /><dc:title /></cc:Work></rdf:RDF></metadata><g
     id="layer1"
     style="display:inline"
     transform="translate(721.16268,-651.21904)"><g
       id="g830"
       transform="translate(-0.09259554,24.75074)"><g
         id="g88-93-7-1-8"
         transform="matrix(2.5370734,0,0,2.5370734,-296.37864,293.30765)"
         style="display:inline;fill:#000000;fill-opacity:1"><g
           id="g544-3-0-8-5-8-3"
           transform="matrix(0.07104808,0,0,0.07104808,-2756.5561,-1348.3238)"
           style="display:inline;fill:#000000;fill-opacity:1;stroke-width:0.915005"><g
             id="g527-0-7-0-7-7-7"
             style="fill:#000000;fill-opacity:1;stroke-width:0.915005"><path
               style="font-weight:600;font-size:13.3333px;line-height:1.3;font-family:'Kode Mono';-inkscape-font-specification:'Kode Mono Semi-Bold';white-space:pre;fill:#000000;fill-opacity:1;stroke-width:24.208"
               d="m 37195.12,21472.616 h -19.889 v 28.245 h -47.548 l -31.226,29.84 -31.244,-29.84 h -47.534 v -28.245 h -19.903 v 37.794 l 12.145,11.532 h 49.129 l 37.407,36.211 37.387,-36.211 h 49.145 l 12.131,-11.532 z"
               id="path378-0-5-2-2-1-1" /><path
               style="font-weight:600;font-size:13.3333px;line-height:1.3;font-family:'Kode Mono';-inkscape-font-specification:'Kode Mono Semi-Bold';white-space:pre;fill:#000000;fill-opacity:1;stroke-width:24.208"
               d="m 37101.813,21304.234 v 148.794 h 21.29 v -47.146 l 18.307,-18.889 32.42,47.341 v 18.694 h 21.29 v -22.081 l -39.596,-58.679 33.42,-33.823 h -27.647 l -38.194,39.597 v -73.808 z"
               id="path377-3-8-4-9-5-2" /><path
               style="font-weight:600;font-size:13.3333px;line-height:1.3;font-family:'Kode Mono';-inkscape-font-specification:'Kode Mono Semi-Bold';white-space:pre;fill:#000000;fill-opacity:1;stroke-width:24.208"
               d="m 37007.527,21344.413 -17.113,17.709 v 65.647 l 16.919,25.259 h 57.679 l 15.517,-16.113 -12.324,-15.308 -10.951,11.339 h -39.582 l -6.759,-10.145 v -16.919 h 37.389 l 34.42,-35.405 -17.501,-26.064 z m 3.386,25.468 5.163,-5.178 h 37 l 3.984,5.58 -16.516,17.307 h -29.631 z"
               id="path376-8-4-8-7-5-6" /><path
               style="font-weight:600;font-size:13.3333px;line-height:1.3;font-family:'Kode Mono';-inkscape-font-specification:'Kode Mono Semi-Bold';white-space:pre;fill:#000000;fill-opacity:1;stroke-width:24.208"
               d="m 37195.12,21258.682 h -197.344 v 60.872 h 19.903 v -39.777 h 157.552 v 39.777 h 19.889 z"
               id="text371-3-2-3-5-8-1" /></g></g></g><g
         id="g543-1-9-5-5"
         transform="matrix(0.2398674,0,0,0.2398674,-9671.4009,-4395.7932)"
         style="display:inline;fill:#000000;fill-opacity:1;stroke-width:0.915005"><g
           id="g526-4-0-1-0"
           style="fill:#000000;fill-opacity:1;stroke-width:0.915005"><g
             id="g385-45-5-7-4"
             transform="translate(-650.01495)"
             style="fill:#000000;fill-opacity:1;stroke-width:0.915005"><g
               id="g384-2-2-8-5"
               style="fill:#000000;fill-opacity:1;stroke-width:0.915005"><g
                 id="g382-6-2-2-1"
                 transform="matrix(0.61520988,0,0,0.61520988,14475.232,8261.8719)"
                 style="fill:#000000;fill-opacity:1;stroke-width:1.4873"><path
                   style="font-weight:600;font-size:13.3333px;line-height:1.3;font-family:'Kode Mono';-inkscape-font-specification:'Kode Mono Semi-Bold';white-space:pre;display:inline;fill:#000000;fill-opacity:1;stroke-width:39.3491"
                   d="m 38623.21,21391.934 h -19.889 v 28.245 h -47.548 l -31.226,29.84 -31.244,-29.84 h -47.534 v -28.245 h -19.903 v 37.794 l 12.145,11.532 h 49.129 l 37.407,36.211 37.387,-36.211 h 49.145 l 12.131,-11.532 z"
                   id="path378-4-9-7-5-2" /><path
                   style="font-weight:600;font-size:13.3333px;line-height:1.3;font-family:'Kode Mono';-inkscape-font-specification:'Kode Mono Semi-Bold';white-space:pre;display:inline;fill:#000000;fill-opacity:1;stroke-width:39.3491"
                   d="m 38529.903,21223.552 v 148.794 h 21.29 v -47.146 l 18.307,-18.889 32.42,47.341 v 18.694 h 21.29 v -22.081 l -39.596,-58.679 33.42,-33.823 h -27.647 l -38.194,39.597 v -73.808 z"
                   id="path377-4-5-3-4-3" /><path
                   style="font-weight:600;font-size:13.3333px;line-height:1.3;font-family:'Kode Mono';-inkscape-font-specification:'Kode Mono Semi-Bold';white-space:pre;display:inline;fill:#000000;fill-opacity:1;stroke-width:39.3491"
                   d="m 38435.617,21263.731 -17.113,17.709 v 65.647 l 16.919,25.259 h 57.679 l 15.517,-16.113 -12.324,-15.308 -10.951,11.339 h -39.582 l -6.759,-10.145 v -16.919 h 37.389 l 34.42,-35.405 -17.501,-26.064 z m 3.386,25.468 5.163,-5.178 h 37 l 3.984,5.58 -16.516,17.307 h -29.631 z"
                   id="path376-5-0-7-5-7" /><path
                   style="font-weight:600;font-size:13.3333px;line-height:1.3;font-family:'Kode Mono';-inkscape-font-specification:'Kode Mono Semi-Bold';white-space:pre;display:inline;fill:#000000;fill-opacity:1;stroke-width:39.3491"
                   d="m 38623.21,21178 h -197.344 v 60.872 h 19.903 v -39.777 h 157.552 v 39.777 h 19.889 z"
                   id="text371-9-3-9-3-2" /></g></g><g
               id="g383-0-0-0-4"
               transform="rotate(4.7032171,38169.089,21374.762)"
               style="fill:#000000;fill-opacity:1;stroke-width:0.915005"><path
                 style="font-weight:500;font-size:42.4464px;line-height:1;font-family:'Kode Mono';-inkscape-font-specification:'Kode Mono Medium';letter-spacing:2px;white-space:pre;fill:#000000;fill-opacity:1;stroke-width:3.91349"
                 d="m 38071.331,21312.79 -26.142,-14.121 -1.896,3.511 13.668,7.383 -3.018,1.747 -2.057,3.809 -7.298,0.738 -6.722,-3.631 -1.916,3.548 7.208,3.893 7.222,-0.778 1.741,5.62 3.921,2.118 8.289,-0.878 z m -5.108,1.776 -4.155,7.693 -4.67,0.517 -2.502,-1.351 -0.807,-2.704 4.478,-8.291 z m -12.841,19.106 -2.385,-4.477 -13.284,-4.309 -6.053,1.741 -3.732,11.507 2.099,3.983 3.346,-1.235 -1.487,-2.982 2.684,-8.277 2.665,-0.786 3.998,1.296 -2.528,7.793 4.812,9.102 6.133,-1.849 z m -4.801,-1.155 0.831,1.563 -2.606,8.035 -1.661,0.443 -2.711,-4.985 2.069,-6.379 z m -1.385,23.971 -1.57,11.824 -3.853,1.929 -2.285,-2.787 2.891,-1.457 1.101,-8.289 -0.859,-1.271 -2.777,-0.368 -2.258,1.199 -1.313,9.888 -4.899,2.389 -5.554,-0.737 -2.927,-3.429 1.794,-13.507 3.149,-1.466 2.242,2.782 -2.019,1.016 -1.324,9.972 0.699,0.864 3.787,0.503 1.702,-0.888 1.319,-9.93 5.448,-2.659 4.671,0.62 z m -22.722,27.085 0.393,7.928 -0.945,0.642 -3.01,0.149 -3.471,-3.143 -0.292,-5.893 2.13,-1.593 3.01,-0.149 z m 15.784,-3.078 1.863,1.565 0.383,7.715 -2.046,1.589 -3.434,0.171 -2.11,-3.125 -0.379,-7.631 z m -9.064,8.312 4.671,6.78 10.598,-0.526 -0.197,-3.985 -1.823,0.09 1.671,-3.143 -0.381,-7.674 -4.528,-3.897 -8.352,0.414 -0.977,1.706 -2.27,-2.055 -4.223,3.1 -2.448,-2.216 -4.536,0.225 -5.031,3.947 0.46,9.285 6.141,5.56 4.579,-0.228 4.105,-2.923 -0.558,-11.235 1.317,-0.873 1.468,1.33 z m 16.598,13.294 -3.554,0.837 2.821,11.982 -5.412,1.274 -2.092,-8.883 -8.312,-4.933 -1.818,0.428 -4.452,4.798 2.062,8.759 2.588,2.661 -1.859,0.438 0.934,3.967 18.882,-4.445 3.334,-3.62 z m -16.836,4.618 0.248,-0.06 5.075,3.036 1.712,7.271 -6.611,1.557 -2.344,-9.958 z m 31.031,15.309 1.601,3.655 -8.126,3.559 2.758,6.299 -3.382,1.481 -2.759,-6.298 -12.17,5.33 -1.464,2.263 1.634,3.732 3.562,1.36 -1.927,3.114 -4.331,-1.532 -3.048,-6.959 3.351,-5.361 12.792,-5.602 -1.345,-3.072 3.383,-1.481 1.345,3.071 z m 1.851,23.927 -4.997,-0.875 -11.569,7.821 -2.353,5.843 6.775,10.022 4.432,0.796 1.085,-3.398 -3.266,-0.662 -4.873,-7.209 1.02,-2.585 3.481,-2.353 4.588,6.787 10.136,1.807 2.316,-5.972 z m -3.865,3.074 1.744,0.306 4.731,6.998 -0.673,1.582 -5.598,-0.929 -3.756,-5.556 z m 41.86,28.152 -9.939,1.882 -12.922,18.364 3.229,2.271 7.645,-10.865 8.783,6.179 -7.645,10.866 3.263,2.296 17.098,-24.3 z m -7.297,4.987 6.377,-1.171 5.068,3.566 -5.252,7.464 -8.782,-6.18 z m 19.924,11.053 11.065,5.095 0.921,5.611 -3.432,1.364 -0.712,-4.44 -7.904,-3.64 -1.594,0.621 -5.096,11.065 0.468,2.739 7.865,3.622 3.527,-1.367 0.569,3.534 -4.164,1.634 -11.065,-5.096 -0.998,-6.254 5.823,-12.646 z m 21.331,8.091 -0.903,3.537 11.927,3.045 -1.375,5.387 -8.843,-2.257 -8.22,5.086 -0.461,1.81 2.193,6.167 8.719,2.226 3.557,-1.063 -0.473,1.85 3.949,1.008 4.797,-18.795 -1.665,-4.631 z m -3.698,17.061 0.06,-0.247 5.039,-3.094 7.239,1.848 -1.68,6.58 -9.912,-2.53 z m 39.218,-19.95 3.98,0.272 -2.187,31.973 -3.981,-0.273 0.125,-1.821 -3.174,1.613 -8.639,-0.592 -3.277,-5.585 0.939,-13.72 3.815,-3.526 8.724,0.597 2.924,2.03 z m -13.134,25.309 1.328,2.346 8.766,0.6 1.177,-1.026 0.834,-12.196 -1.331,-2.303 -8.724,-0.597 -1.224,1.107 z m 23.91,-16.35 -3.087,4.025 1.578,13.876 4.091,4.789 12.02,-1.368 2.756,-3.56 -2.51,-2.534 -2.098,2.588 -8.645,0.984 -1.82,-2.1 -0.475,-4.175 8.14,-0.926 6.292,-8.15 -4.222,-4.817 z m 0.937,4.849 1.079,-1.404 8.392,-0.955 1.091,1.328 -3.414,4.532 -6.664,0.759 z m 5.041,-15.013 -2.066,0.235 -5.513,5.241 2.274,1.963 4.621,-3.687 5.416,2.545 1.733,-2.419 z m 12.828,7.814 6.637,21.85 3.818,-1.16 -5.219,-17.179 0.739,-1.511 1.868,-0.568 2.063,1.68 1.518,4.996 3.858,-1.172 -1.801,-5.93 0.698,-1.498 1.828,-0.556 2.022,1.693 4.935,16.246 3.858,-1.172 -5.107,-16.815 -4.942,-3.999 -1.827,0.555 -3.682,4.09 -2.613,-2.178 -1.95,0.592 -2.353,2.622 -0.531,-1.746 z m 24.228,-8.897 1.655,3.206 3.998,-2.064 2.352,1.318 6.522,12.635 -6.865,3.544 1.636,3.168 17.199,-8.878 -1.635,-3.168 -6.865,3.543 -6.795,-13.163 -5.544,-3.062 z m 2.509,-7.17 -2.22,-4.3 4.3,-2.22 2.219,4.3 z m 19.787,-4.583 9.638,-7.451 5.4,1.781 -0.379,3.673 -4.266,-1.423 -6.884,5.322 -0.188,1.7 7.451,9.638 2.644,0.853 6.851,-5.296 0.421,-3.759 3.395,1.131 -0.478,4.447 -9.638,7.451 -6.006,-2.009 -8.516,-11.015 z m 17.774,-15.024 8.19,-9.132 6.331,0.888 10.301,9.239 0.369,5.12 -8.162,9.101 -6.359,-0.857 -10.301,-9.239 z m 12.863,11.024 2.695,0.364 5.838,-6.509 -0.116,-1.587 -9.069,-8.134 -2.635,-0.368 -5.838,6.51 0.151,1.675 z m 6.752,-51.752 2.148,4.695 19.328,7.449 6.218,-1.38 5.694,-14.773 -3.406,-1.313 -4.992,12.952 -2.633,0.577 -7.328,-2.824 3.526,-9.149 -3.406,-1.313 -3.526,9.149 -6.971,-2.686 -0.712,-1.457 5.129,-13.308 -3.406,-1.313 z m 13.876,-20.092 2.209,-11.721 3.952,-1.717 2.13,2.906 -2.966,1.299 -1.548,8.217 0.789,1.315 2.753,0.519 2.319,-1.075 1.847,-9.803 5.021,-2.12 5.506,1.037 2.737,3.583 -2.523,13.389 -3.224,1.293 -2.088,-2.898 2.071,-0.906 1.862,-9.886 -0.651,-0.9 -3.754,-0.707 -1.747,0.793 -1.855,9.845 -5.585,2.36 -4.63,-0.873 z m 3.345,-22.813 0.06,-12.182 4.727,-3.162 2.662,2.56 -3.747,2.487 -0.04,8.701 1.225,1.194 12.182,0.06 2.3,-1.559 0.04,-8.659 -2.705,-2.645 2.981,-1.981 3.211,3.114 -0.06,12.182 -5.28,3.498 -13.922,-0.06 z m -0.906,-23.255 -2.16,-12.075 4.595,-4.444 13.621,-2.436 4.263,2.859 2.153,12.034 -4.588,4.486 -13.621,2.436 z m 16.604,-3.357 1.945,-1.901 -1.539,-8.607 -1.323,-0.885 -11.991,2.145 -1.911,1.851 1.539,8.608 1.414,0.911 z m -28.875,-13.125 3.378,-1.266 -2.1,-5.604 21.423,-8.03 3.677,-5.186 -3.232,-8.625 -3.394,1.227 2.578,6.876 -1.586,2.181 -22.218,8.327 -0.761,4.138 z m -2.309,-27.069 3.131,-1.877 -6.331,-10.557 4.768,-2.859 4.694,7.826 9.419,2.171 1.602,-0.96 2.782,-5.925 -4.628,-7.718 -3.276,-1.747 1.638,-0.983 -2.095,-3.494 -16.636,9.976 -2.076,4.462 z m 14.634,-9.518 -0.219,0.131 -5.757,-1.348 -3.843,-6.407 5.825,-3.493 5.261,8.773 z m -24.581,-7.69 2.74,-2.412 -1.823,-2.071 0.647,-2.605 10.036,-8.835 2.833,3.218 2.708,-2.384 -9.424,-10.705 -2.708,2.384 3.983,4.524 -10.355,9.115 -2.46,-0.1 -3.702,-4.206 0.628,-2.306 -3.521,-0.916 -1.109,4.2 5.974,6.787 3.239,0.146 0.856,4.505 z"
                 id="text380-2-2-1-1"
                 transform="translate(2.5685344e-4,2.48236e-4)"
                 aria-label="Resgate Acadêmico Escolar" /><path
                 style="font-weight:bold;font-size:42.44px;line-height:1.3;font-family:'Kode Mono';-inkscape-font-specification:'Kode Mono Bold';letter-spacing:0px;white-space:pre;fill:#000000;fill-opacity:1;stroke-width:3.7497"
                 d="m 38072.975,21266.052 -0.448,5.414 8.902,10.867 6.353,1.928 9.685,-7.933 0.406,-4.996 -4.665,-1.007 -0.272,3.351 -6.304,5.163 -2.315,-0.682 -1.936,-2.364 6.008,-4.922 0.917,-10.735 -6.646,-2.018 z m 4.619,3.897 0.11,-1.406 5.712,-4.68 1.144,0.325 -0.332,4.551 -4.563,3.738 z m 25.723,-35.076 4.539,-2.403 15.253,28.804 -4.538,2.404 -0.655,-1.238 -1.37,2.31 -8.101,4.29 -6.132,-3.236 -6.356,-12.002 1.524,-5.465 8.101,-4.29 2.681,0.165 z m 3.117,27.74 1.942,1.037 7.276,-3.853 0.317,-1.033 -5.243,-9.901 -1.962,-1.074 -7.201,3.813 -0.333,1.185 z m 29.198,-29.905 5.046,17.051 -0.504,0.99 -7.854,2.325 -1.698,-1.401 -4.757,-16.074 -4.924,1.457 5.022,16.97 5.317,4.357 8.79,-2.601 1.882,-2.018 0.397,1.343 4.843,-1.433 -6.636,-22.423 z m 13.734,-11.603 2.804,31.621 5.115,-0.454 -0.877,-9.892 3.225,-3.992 7.495,9.092 0.345,3.889 5.115,-0.454 -0.423,-4.777 -9.423,-11.605 6.773,-8.185 -6.721,0.596 -6.986,8.672 -1.327,-14.965 z m 31.858,-2.565 5.103,0.568 -1.178,10.587 2.433,-1.138 9.068,1.009 3.308,5.962 -1.972,17.716 -5.103,-0.568 1.863,-16.746 -1.026,-1.907 -8.098,-0.902 -0.933,0.708 -1.972,17.715 -5.103,-0.568 z m 32.031,14.431 -1.437,4.486 11.437,3.665 -1.127,3.517 -8.163,-2.617 -8.683,4.705 -0.687,2.142 1.902,6.581 8.811,2.824 2.65,-0.622 -0.428,1.334 4.891,1.567 5.828,-18.187 -1.495,-5.069 z m -3.323,16.628 0.03,-0.08 4.349,-2.306 6.183,1.982 -1.658,5.173 -8.689,-2.784 z m 28.502,-7.453 -11.404,20.415 4.483,2.504 8.651,-15.487 1.102,-0.406 7.188,4.015 0.184,2.194 -8.196,14.672 4.484,2.504 8.651,-15.487 -0.582,-6.791 -8.04,-4.491 -2.721,0.08 0.683,-1.223 z"
                 id="text371-5-1-3-8-3-9-8"
                 aria-label="edukhan" /></g></g></g></g><g
         id="g419-2-0-0"
         transform="matrix(1.8537569,0,0,1.8537569,-112.59113,406.04266)"
         style="display:inline;fill:#000000;fill-opacity:1"><g
           id="g418-1-9-3"
           transform="matrix(1.8665339,0,0,1.8665339,88.855189,-147.12232)"
           style="fill:#000000;fill-opacity:1"><path
             style="-inkscape-font-specification:'Kode Mono Semi-Bold';display:inline;fill:#000000;fill-opacity:1;stroke-width:1.71993"
             d="m -145.6746,170.01935 v 5.3678 h 1.0561 v -4.1541 l 0.2169,-0.2465 h 1.9834 l 0.316,0.4737 v 3.9269 h 1.0561 v -4.1045 l -0.8585,-1.2633 h -2.0826 l -0.6313,0.3752 v -0.3752 z"
             id="path393-1-2-9" /><path
             style="-inkscape-font-specification:'Kode Mono Semi-Bold';display:inline;fill:#000000;fill-opacity:1;stroke-width:1.71993"
             d="m -150.7825,169.93055 v 0.9769 h 2.8219 v 1.0657 h -2.0523 l -1.5689,1.6378 v 0.4841 l 0.8681,1.2921 h 2.1218 l 0.6313,-0.3848 v 0.3848 h 1.0761 v -4.4701 l -0.6713,-0.9865 z m 0.296,3.9869 v -0.037 l 0.8784,-0.8977 h 1.6282 v 1.4113 h -2.2498 z"
             id="path394-0-4-4" /><path
             id="path395-1-9-9"
             style="-inkscape-font-specification:'Kode Mono Semi-Bold';display:inline;fill:#000000;fill-opacity:1;stroke-width:1.71993"
             d="m -157.4071,168.43045 v 6.9567 h 1.0561 v -4.1741 l 0.2368,-0.2265 h 1.9635 l 0.316,0.4634 v 3.9372 h 1.0562 v -4.1245 l -0.8787,-1.2433 h -2.0722 l -0.6216,0.3752 v -1.9641 z" /><path
             id="path396-8-2-6"
             style="-inkscape-font-specification:'Kode Mono Semi-Bold';display:inline;fill:#000000;fill-opacity:1;stroke-width:1.71993"
             d="m -163.2454,168.43045 v 6.9567 h 1.0561 v -2.3387 l 0.9081,-0.9369 1.6081,2.3484 v 0.9272 h 1.0561 v -1.0952 l -1.9641,-2.9109 1.6578,-1.6777 h -1.3713 l -1.8947,1.9642 v -3.2371 z" /><path
             style="-inkscape-font-specification:'Kode Mono Semi-Bold';display:inline;fill:#000000;fill-opacity:1;stroke-width:1.71993"
             d="m -165.5106,170.01935 v 4.1541 l -0.2175,0.2272 h -1.9731 l -0.316,-0.4641 v -3.9172 h -1.0562 v 4.0949 l 0.8585,1.2729 h 2.0826 l 0.6409,-0.3745 v 0.3745 h 1.0362 v -5.3678 z"
             id="path405-7-9-5" /><path
             style="-inkscape-font-specification:'Kode Mono Semi-Bold';display:inline;fill:#000000;fill-opacity:1;stroke-width:1.71993"
             d="m -171.3491,168.43045 h 1.0658 v 6.9567 h -1.0658 v -0.3745 l -0.612,0.3745 h -2.0819 l -0.8785,-1.2825 v -3.1772 l 0.8785,-0.9178 h 2.0723 l 0.6216,0.3745 z m -2.5067,5.4965 0.316,0.4737 h 1.9835 l 0.2072,-0.2168 v -2.7139 l -0.316,-0.4834 h -1.9538 l -0.2369,0.2465 z"
             id="path406-6-1-1" /><path
             style="-inkscape-font-specification:'Kode Mono Semi-Bold';display:inline;fill:#000000;fill-opacity:1;stroke-width:1.71993"
             d="m -179.8615,169.99915 -0.8489,0.8784 v 3.2564 l 0.8393,1.253 h 2.8612 l 0.7696,-0.7993 -0.6113,-0.7593 -0.5432,0.5625 h -1.9635 l -0.3352,-0.5033 v -0.8393 h 1.8547 l 1.7074,-1.7562 -0.8682,-1.2929 z m 0.168,1.2633 0.2561,-0.2568 h 1.8354 l 0.1976,0.2768 -0.8193,0.8584 h -1.4698 z"
             id="path407-0-0-3" /><path
             style="font-weight:600;font-size:13.3333px;line-height:1.3;font-family:'Kode Mono';-inkscape-font-specification:'Kode Mono Semi-Bold';white-space:pre;display:inline;fill:#000000;fill-opacity:1;stroke-width:1.71993"
             d="m -170.3028,176.51235 h -0.9457 v 0.7325 h -2.3076 l -1.5155,1.4481 -1.5162,-1.4481 h -2.3069 v -0.7327 h -0.966 v 1.196 l 0.5895,0.5598 h 2.3843 l 1.8153,1.7573 1.8146,-1.7573 h 2.385 l 0.5887,-0.5598 z"
             id="path408-0-9-2" /><path
             style="font-weight:600;font-size:13.3333px;line-height:1.3;font-family:'Kode Mono';-inkscape-font-specification:'Kode Mono Semi-Bold';white-space:pre;display:inline;fill:#000000;fill-opacity:1;stroke-width:1.71993"
             d="m -170.2833,165.71885 h -9.5774 v 3.155 h 0.966 v -2.1312 h 7.6462 v 0.5626 h 0.9652 z"
             id="path409-9-3-6" /><path
             style="-inkscape-font-specification:'Kode Mono Semi-Bold';display:inline;fill:#000000;fill-opacity:1;stroke-width:1.71993"
             d="m -145.6746,170.01935 v 5.3678 h 1.0561 v -4.1541 l 0.2169,-0.2465 h 1.9834 l 0.316,0.4737 v 3.9269 h 1.0561 v -4.1045 l -0.8585,-1.2633 h -2.0826 l -0.6313,0.3752 v -0.3752 z"
             id="path410-5-0-9" /><path
             style="-inkscape-font-specification:'Kode Mono Semi-Bold';display:inline;fill:#000000;fill-opacity:1;stroke-width:1.71993"
             d="m -150.7825,169.93055 v 0.9769 h 2.8219 v 1.0657 h -2.0523 l -1.5689,1.6378 v 0.4841 l 0.8681,1.2921 h 2.1218 l 0.6313,-0.3848 v 0.3848 h 1.0761 v -4.4701 l -0.6713,-0.9865 z m 0.296,3.9869 v -0.037 l 0.8784,-0.8977 h 1.6282 v 1.4113 h -2.2498 z"
             id="path411-6-0-0" /><path
             id="path412-2-3-0"
             style="-inkscape-font-specification:'Kode Mono Semi-Bold';display:inline;fill:#000000;fill-opacity:1;stroke-width:1.71993"
             d="m -157.4071,168.43045 v 6.9567 h 1.0561 v -4.1741 l 0.2368,-0.2265 h 1.9635 l 0.316,0.4634 v 3.9372 h 1.0562 v -4.1245 l -0.8787,-1.2433 h -2.0722 l -0.6216,0.3752 v -1.9641 z" /><path
             id="path413-8-0-3"
             style="-inkscape-font-specification:'Kode Mono Semi-Bold';display:inline;fill:#000000;fill-opacity:1;stroke-width:1.71993"
             d="m -163.2454,168.43045 v 6.9567 h 1.0561 v -2.3387 l 0.9081,-0.9369 1.6081,2.3484 v 0.9272 h 1.0561 v -1.0952 l -1.9641,-2.9109 1.6578,-1.6777 h -1.3713 l -1.8947,1.9642 v -3.2371 z" /><path
             style="-inkscape-font-specification:'Kode Mono Semi-Bold';display:inline;fill:#000000;fill-opacity:1;stroke-width:1.71993"
             d="m -165.5106,170.01935 v 4.1541 l -0.2175,0.2272 h -1.9731 l -0.316,-0.4641 v -3.9172 h -1.0562 v 4.0949 l 0.8585,1.2729 h 2.0826 l 0.6409,-0.3745 v 0.3745 h 1.0362 v -5.3678 z"
             id="path414-5-1-9" /><path
             style="-inkscape-font-specification:'Kode Mono Semi-Bold';display:inline;fill:#000000;fill-opacity:1;stroke-width:1.71993"
             d="m -171.3491,168.43045 h 1.0658 v 6.9567 h -1.0658 v -0.3745 l -0.612,0.3745 h -2.0819 l -0.8785,-1.2825 v -3.1772 l 0.8785,-0.9178 h 2.0723 l 0.6216,0.3745 z m -2.5067,5.4965 0.316,0.4737 h 1.9835 l 0.2072,-0.2168 v -2.7139 l -0.316,-0.4834 h -1.9538 l -0.2369,0.2465 z"
             id="path415-9-9-5" /><path
             style="-inkscape-font-specification:'Kode Mono Semi-Bold';display:inline;fill:#000000;fill-opacity:1;stroke-width:1.71993"
             d="m -179.8615,169.99915 -0.8489,0.8784 v 3.2564 l 0.8393,1.253 h 2.8612 l 0.7696,-0.7993 -0.6113,-0.7593 -0.5432,0.5625 h -1.9635 l -0.3352,-0.5033 v -0.8393 h 1.8547 l 1.7074,-1.7562 -0.8682,-1.2929 z m 0.168,1.2633 0.2561,-0.2568 h 1.8354 l 0.1976,0.2768 -0.8193,0.8584 h -1.4698 z"
             id="path416-4-8-3" /><path
             style="font-weight:600;font-size:13.3333px;line-height:1.3;font-family:'Kode Mono';-inkscape-font-specification:'Kode Mono Semi-Bold';white-space:pre;display:inline;fill:#000000;fill-opacity:1;stroke-width:1.71993"
             d="m -170.3028,176.51235 h -0.9457 v 0.7325 h -2.3076 l -1.5155,1.4481 -1.5162,-1.4481 h -2.3069 v -0.7327 h -0.966 v 1.196 l 0.5895,0.5598 h 2.3843 l 1.8153,1.7573 1.8146,-1.7573 h 2.385 l 0.5887,-0.5598 z"
             id="path417-3-6-1" /><path
             style="font-weight:600;font-size:13.3333px;line-height:1.3;font-family:'Kode Mono';-inkscape-font-specification:'Kode Mono Semi-Bold';white-space:pre;display:inline;fill:#000000;fill-opacity:1;stroke-width:1.71993"
             d="m -170.2833,165.71885 h -9.5774 v 3.155 h 0.966 v -2.1312 h 7.6462 v 0.5626 h 0.9652 z"
             id="path418-9-9-1" /></g></g></g><g
       id="g831"
       transform="translate(29.75889)"><g
         id="g232-2-6-4-7-2-6-9"
         transform="matrix(0.01682826,0,0,0.01682826,-1075.3944,736.49343)"
         style="display:inline;stroke-width:5.27456"><rect
           style="fill:#e073e5;fill-opacity:1;stroke:none;stroke-width:15.9483"
           id="rect198-7-7-0-7-8-5-9"
           width="1287.2681"
           height="1287.2681"
           x="22957.355"
           y="4836.6309" /><path
           class="cls-1"
           d="m 23759.236,5538.8826 213.005,279.5627 -186.385,106.4995 -188.949,-271.4032 -204.839,268.8272 -170.48,-117.2366 221.156,-271.4016 -303.61,-103.9235 66.565,-191.5282 298.022,111.6531 8.153,-314.3465 199.695,10.7356 -8.167,308.7645 282.149,-119.8125 77.295,175.6391 z"
           id="path77-3-4-6-9-6-8-9-0-5-4"
           style="display:inline;fill:#e7c04f;fill-opacity:1;fill-rule:evenodd;stroke-width:0px" /></g><g
         id="g233-3-3-2-6-5-8-9"
         transform="matrix(0.01682826,0,0,0.01682826,-1119.1706,708.28706)"
         style="display:inline;stroke-width:5.27456"><rect
           style="fill:#99de81;fill-opacity:1;stroke:none;stroke-width:15.9483"
           id="rect202-09-4-0-0-0-1-1"
           width="1287.2681"
           height="1287.2681"
           x="22984.174"
           y="6512.7612" /><g
           id="g225-0-1-6-1-6-4-5"
           transform="translate(-280.97214,813.91825)"
           style="fill:#6e55f5;fill-opacity:1;stroke-width:5.27456"><path
             class="cls-1"
             d="m 23750.036,6881.7791 -98.293,-26.7652 414.857,-1051.8385 99.218,26.765 z"
             id="path63-6-7-9-1-9-0-2-1-7-9"
             style="display:inline;fill:#6e55f5;fill-opacity:1;fill-rule:evenodd;stroke-width:0px" /><path
             class="cls-1"
             d="m 24102.03,6478.3809 196.428,-135.3677 -198.429,-131.672 44.761,-65.8336 282.267,198.4294 -277.5,195.5099 -47.68,-61.066 z"
             id="path93-3-1-7-5-5-7-3-9-1-8"
             style="display:inline;fill:#6e55f5;fill-opacity:1;fill-rule:evenodd;stroke-width:0px" /><path
             class="cls-1"
             d="m 23715.531,6478.3809 -196.428,-135.3677 198.429,-131.672 -44.761,-65.8336 -282.267,198.4294 277.5,195.5099 47.68,-61.066 z"
             id="path93-3-1-7-3-8-9-2-2-0-3-3"
             style="display:inline;fill:#6e55f5;fill-opacity:1;fill-rule:evenodd;stroke-width:0px" /></g></g><g
         id="g231-2-8-9-1-2-8-0"
         transform="matrix(0.01682826,0,0,0.01682826,-1013.3592,736.48402)"
         style="display:inline;stroke-width:5.27456"><rect
           style="fill:#6e55f5;fill-opacity:1;stroke:none;stroke-width:15.9483"
           id="rect199-5-8-8-1-7-4-9"
           width="1287.2681"
           height="1287.2681"
           x="24418.941"
           y="4836.6309" /><path
           style="fill:#f5cd50;fill-opacity:1;stroke:none;stroke-width:15.9483"
           d="m 25105.295,4836.6312 16.429,767.5719 139.86,-175.2258 206.996,324.0475 v -916.3936 z"
           id="path205-0-8-1-0-5-8-0" /></g><g
         id="g314-7-1-1-2-0-7"
         transform="matrix(0.06732341,0,0,0.06732341,-3186.4512,683.14262)"
         style="display:inline;stroke-width:1.31844"><rect
           style="display:inline;fill:#4db5ea;fill-opacity:1;stroke:none;stroke-width:3.98645"
           id="rect201-4-3-6-3-4-4-6"
           width="321.7673"
           height="321.7673"
           x="37738.941"
           y="2001.4272" /><path
           id="rect227-9-8-1-8-5-6-8"
           style="display:inline;fill:#0a28e6;fill-opacity:1;stroke:none;stroke-width:3.98645"
           d="m 37781.133,2074.1939 v 142.5807 h 13.871 c 3.507,0 9.195,-0.013 12.699,0.1431 28.725,1.2785 56.378,11.0595 83.948,31.7782 3.14,2.3601 8.054,2.3237 11.063,-0.2014 23.998,-19.1501 53.536,-30.2116 84.223,-31.5768 3.504,-0.1563 9.192,-0.1431 12.7,-0.1431 h 18.881 v -142.5807 h -18.881 c -3.508,0 -9.196,-0.012 -12.7,0.1443 -28.725,1.2785 -56.379,11.0593 -83.949,31.7782 -3.141,2.3599 -8.053,2.3225 -11.062,-0.2026 -23.998,-19.1501 -53.538,-30.2103 -84.223,-31.5756 -3.504,-0.1562 -9.193,-0.1443 -12.7,-0.1443 z" /></g><g
         id="g234-92-9-1-0-0-0-3"
         transform="matrix(0.01682826,0,0,0.01682826,-992.14803,708.27766)"
         style="display:inline;stroke-width:5.27456"><rect
           style="fill:#0a28e6;fill-opacity:1;stroke:none;stroke-width:15.9483"
           id="rect203-7-6-8-0-1-3-8"
           width="1287.2681"
           height="1287.2681"
           x="24445.76"
           y="6512.7612" /><path
           class="cls-1"
           d="m 25497.022,7063.5168 -177.026,1.4158 -21.947,193.0747 182.924,2.8326 -17.466,125.8048 -181.507,-2.8326 -24.782,216.6779 -128.879,-4.4848 24.781,-213.6089 -194.719,-2.8326 -26.436,215.0257 -128.88,1.4158 24.791,-218.0937 -155.079,-1.4159 13.222,-125.8056 159.56,1.4167 20.529,-182.9247 -171.12,1.4159 14.631,-127.2216 172.773,-1.4158 26.437,-220.9264 128.879,-5.9005 -26.436,226.8269 194.72,-2.8327 27.853,-226.8268 127.226,13.2179 -24.782,213.6089 169.703,-1.4158 -8.734,125.8048 z m -501.807,4.4847 -21.947,185.7574 196.147,2.8325 21.946,-190.242 -196.146,1.4158 z"
           id="path71-8-5-4-2-8-1-9-3-2-6"
           style="display:inline;fill:#ffffff;fill-rule:evenodd;stroke-width:0px" /></g><g
         id="g229-3-6-1-4-1-6-1"
         transform="matrix(0.01682826,0,0,0.01682826,-1103.8264,708.06143)"
         style="display:inline;stroke-width:5.27456"><rect
           style="fill:#6e55f5;fill-opacity:1;stroke:none;stroke-width:15.9483"
           id="rect204-0-9-5-2-7-9-9"
           width="1287.2681"
           height="1287.2681"
           x="25934.164"
           y="6526.1699" /><g
           id="g223-1-5-0-4-1-4-6"
           transform="translate(-463.29391,813.91821)"
           style="fill:#4db5ea;fill-opacity:1;stroke-width:5.27456"><path
             style="fill:#4db5ea;fill-opacity:1;stroke:none;stroke-width:15.9483"
             d="m 26537.978,6049.2944 v 950.2258 h 261.132 43.494 l -3.781,-992.8668 z"
             id="path221-5-9-0-0-0-1-7" /><path
             style="fill:#4db5ea;fill-opacity:1;stroke:none;stroke-width:15.9483"
             d="m 26888.779,6438.8746 v 560.6456 h 261.132 43.494 l -3.781,-585.8043 z"
             id="path222-2-6-8-2-9-3-8" /><path
             style="fill:#4db5ea;fill-opacity:1;stroke:none;stroke-width:15.9483"
             d="m 27239.581,6131.6447 v 867.8755 h 261.132 43.494 l -3.781,-906.8211 z"
             id="path223-7-8-3-9-7-7-9" /></g></g><g
         id="g609-7-7-4-8-7"
         transform="matrix(0.09097988,0,0,0.09097988,-4082.9379,-1409.4177)"
         style="display:inline;stroke-width:0.975617"><g
           id="g315-6-0-9-8-8-5"
           transform="matrix(0.73998122,0,0,0.73998122,9134.4149,22690.224)"
           style="stroke-width:1.31844"><g
             id="g228-3-9-1-2-3-3-5"
             transform="matrix(0.24996139,0,0,0.24996139,30860.897,782.40103)"
             style="display:inline;stroke-width:5.27456"><rect
               style="fill:#e7c04f;fill-opacity:1;stroke:none;stroke-width:15.9483"
               id="rect205-9-4-3-2-8-8-2"
               width="1287.2681"
               height="1287.2681"
               x="27543.25"
               y="6552.9883" /><path
               id="path224-6-7-4-3-1-1-4"
               style="fill:#e073e5;fill-opacity:1;stroke:none;stroke-width:15.9483"
               d="m 28295.394,6693.5317 -483.361,404.4453 374.851,98.6446 z m -108.51,503.0899 -108.509,503.0918 483.361,-404.4453 z" /></g></g></g><g
         id="g313-6-3-1-2-5-9"
         transform="matrix(0.06732341,0,0,0.06732341,-3165.6018,711.3301)"
         style="display:inline;stroke-width:1.31844"><g
           id="g249-6-2-8-7-3-9-3-4"
           style="display:inline;stroke-width:0.442721"
           transform="matrix(2.9780288,0,0,2.9780288,-27496.115,-15022.749)"><rect
             style="fill:#e7c04f;fill-opacity:1;stroke:none;stroke-width:1.33862"
             id="rect205-0-4-0-3-1-7-2-6-5-4"
             width="107.95317"
             height="107.95317"
             x="21909.504"
             y="5576" /><path
             id="path249-5-5-3-5-1-5-4-7"
             style="display:inline;fill:#6e55f5;fill-opacity:1;stroke-width:0px"
             d="m 21925.509,5625.3596 c 0,10.5618 5.508,17.7372 15.38,24.3514 l 9.59,5.6345 c 0.594,0.3152 1.176,0.6301 1.789,0.9467 l -0.171,0.01 11.385,6.6886 11.383,-6.6886 -0.17,-0.01 c 0.609,-0.3146 1.187,-0.6269 1.778,-0.9402 l 9.607,-5.6454 c 9.867,-6.6131 15.372,-13.7874 15.372,-24.347 0,-27.8097 -35.004,-27.5242 -37.972,-12.49 -3.726,-15.41 -37.971,-14.8884 -37.971,12.49 z" /></g></g><g
         id="g607-1-6-2-3-9"
         transform="matrix(0.09097988,0,0,0.09097988,-3892.1301,-1384.4258)"
         style="display:inline;stroke-width:0.975617"><rect
           style="display:inline;fill:#0a28e6;fill-opacity:1;stroke:none;stroke-width:2.9499"
           id="rect600-2-8-3-6-5"
           width="238.10176"
           height="238.10176"
           x="37349.043"
           y="24206.471" /><path
           id="path603-6-1-9-5-5"
           style="opacity:1;fill:#e7c04f;fill-opacity:1;stroke:none;stroke-width:1.95123;stroke-dasharray:none"
           d="m 37468.01,24244.316 v 0 l -46.306,0.502 v 0 l -34.6,17.161 3.938,36.22 33.185,19.159 27.572,25.178 0.26,23.75 h -21.808 l -8.273,8.274 -9.03,22.613 9.55,9.553 h 45.092 1.005 45.09 l 9.553,-9.554 -9.032,-22.612 -8.273,-8.275 h -21.808 l 0.26,-23.749 27.571,-25.179 33.186,-19.158 3.938,-36.221 -34.601,-17.161 -46.304,-0.502 v 0 h -0.08 z m -45.131,16.483 1.348,38.748 -17.726,-10.234 -2.102,-19.347 z m 90.426,0 18.482,9.166 -2.104,19.348 -17.727,10.234 z" /></g><g
         id="g608-6-0-9-9-6"
         transform="matrix(0.09097988,0,0,0.09097988,-3913.7925,-1409.4271)"
         style="display:inline;stroke-width:0.975617"><rect
           style="fill:#6e55f5;fill-opacity:1;stroke:none;stroke-width:2.9499"
           id="rect601-5-6-4-5-1"
           width="238.10176"
           height="238.10176"
           x="37349.043"
           y="24481.271" /><path
           style="fill:#99de81;fill-opacity:1;stroke-width:0.975617"
           d="m 37496.785,24685.12 c -0.02,-0.07 -7.825,-12.898 -17.347,-28.501 -15.091,-24.731 -17.459,-28.442 -18.457,-28.923 -1.325,-0.637 -2.577,-0.402 -3.742,0.707 -0.451,0.428 -8.467,10.704 -17.811,22.833 -9.346,12.128 -17.063,21.96 -17.149,21.849 -0.211,-0.269 -19.798,-157.338 -19.652,-157.591 0.08,-0.144 127.203,87.146 130.642,89.709 0.491,0.367 0.406,0.456 -0.595,0.625 -3.594,0.604 -50.78,9.299 -51.473,9.485 -1.274,0.341 -2.418,2.626 -2.025,4.044 0.174,0.652 7.869,13.416 17.086,28.368 11.192,18.155 16.65,27.298 16.428,27.522 -0.182,0.184 -3.637,2.372 -7.676,4.862 -4.041,2.489 -7.537,4.665 -7.77,4.834 -0.233,0.17 -0.44,0.249 -0.457,0.185 z"
           id="path600-4-0-6-4-5" /></g><g
         id="g605-1-4-7-9-9"
         transform="matrix(0.09097988,0,0,0.09097988,-3982.9156,-1384.4258)"
         style="display:inline;stroke-width:0.975617"><rect
           style="display:inline;fill:#e7c04f;fill-opacity:1;stroke:none;stroke-width:2.9499"
           id="rect601-8-7-9-2-1-1"
           width="238.10176"
           height="238.10176"
           x="37632.602"
           y="24206.471" /><path
           id="path605-1-9-0-7-3"
           style="opacity:1;fill:#ffffff;fill-opacity:1;stroke:none;stroke-width:1.95123;stroke-dasharray:none"
           d="m 37751.652,24239.702 a 85.820366,85.820366 0 0 0 -3.225,0.23 h 9.153 a 85.820366,85.820366 0 0 0 -5.928,-0.23 z m 10.404,0.66 v 17.838 h 16.988 l 11.51,17.718 -12.787,12.788 -8.402,-12.239 h -36.717 l -4.02,4.201 v 24.112 l 6.028,8.769 h 46.033 l 14.066,21.19 v 35.986 l -14.248,14.795 h -18.451 v 25.078 a 85.820366,85.820366 0 0 0 75.416,-85.076 85.820366,85.820366 0 0 0 -75.416,-85.16 z m -19.726,0 a 85.820366,85.820366 0 0 0 -76.498,85.154 85.820366,85.820366 0 0 0 76.498,85.154 v -25.156 h -24.114 l -9.681,-14.064 12.422,-13.153 6.757,9.133 h 44.754 l 2.924,-2.375 v -27.217 l -4.385,-6.211 h -46.031 l -15.711,-23.564 V 24275 l 16.076,-16.806 h 16.989 z m 5.851,170.726 a 85.820366,85.820366 0 0 0 3.471,0.248 85.820366,85.820366 0 0 0 3.471,-0.248 z" /></g><g
         id="g606-3-4-6-5-8"
         transform="matrix(0.09097988,0,0,0.09097988,-3961.2532,-1409.4271)"
         style="display:inline;stroke-width:0.975617"><rect
           style="display:inline;fill:#e073e5;fill-opacity:1;stroke:none;stroke-width:2.9499"
           id="rect601-0-4-5-1-5-8"
           width="238.10176"
           height="238.10176"
           x="37632.602"
           y="24481.271" /><text
           xml:space="preserve"
           transform="matrix(12.929489,0,0,12.929489,-442629.82,-236002.18)"
           id="text371-4-1-8-8-8-0-5-4-9"
           style="font-size:13.3333px;line-height:1;font-family:Helvetica;-inkscape-font-specification:Helvetica;text-align:end;white-space:pre;shape-inside:url(#rect371-7-8-5-3-3-1-2-2-3);display:inline;fill:#0a28e6;fill-opacity:1;stroke-width:1.99634"
           x="-72.662575"
           y="0"><tspan
             x="37145.941"
             y="20159.669"
             id="tspan2"><tspan
               style="font-weight:600;font-family:'Kode Mono';-inkscape-font-specification:'Kode Mono Semi-Bold';text-align:start"
               id="tspan1">{}
</tspan></tspan></text></g></g><g
       id="g829"
       transform="translate(-9.51422,-93.250294)"><g
         id="g828"
         transform="translate(-31.012189,4.5908691)"><rect
           style="display:inline;fill:#0a28e6;fill-opacity:1;stroke:none;stroke-width:0.3;stroke-dasharray:none;stroke-opacity:1"
           id="rect353-2"
           width="27.733084"
           height="28.310884"
           x="-627.36322"
           y="762.28485"
           rx="3.0102026"
           ry="3.0102026" /><text
           transform="translate(-634.87144,707.36238)"
           style="font-style:normal;font-variant:normal;font-weight:normal;font-stretch:normal;font-size:3.175px;line-height:1;font-family:'Kode Mono';-inkscape-font-specification:'Kode Mono';font-variant-ligatures:normal;font-variant-position:normal;font-variant-caps:normal;font-variant-numeric:normal;font-variant-alternates:normal;font-variant-east-asian:normal;font-feature-settings:normal;text-indent:0;text-align:justify;text-decoration:none;text-decoration-line:none;text-decoration-style:solid;text-decoration-color:#000000;letter-spacing:normal;word-spacing:normal;text-transform:none;writing-mode:lr-tb;direction:ltr;text-orientation:mixed;dominant-baseline:auto;baseline-shift:baseline;white-space:pre;shape-inside:url(#rect3671-7-1);shape-padding:0;shape-margin:0;inline-size:0;display:inline;opacity:0.999;vector-effect:none;fill:#ffffff;fill-opacity:1;stroke:none;stroke-width:0.529167;stroke-linecap:butt;stroke-linejoin:miter;stroke-miterlimit:4;stroke-dasharray:none;stroke-dashoffset:5.29167;stroke-opacity:1;stop-color:#000000"
           id="text3669-9-9"
           xml:space="preserve"><tspan
             x="10"
             y="60.307812"
             id="tspan3">HEX 0a28e6</tspan></text></g><g
         id="g827"
         transform="translate(-29.982977,4.5908691)"><rect
           style="display:inline;fill:#4db5ea;fill-opacity:1;stroke:none;stroke-width:0.782066;stroke-opacity:1"
           id="rect354-1"
           width="27.733084"
           height="28.310884"
           x="-595.84827"
           y="762.28485"
           rx="3.0102026"
           ry="3.0102026" /><text
           transform="translate(-602.67015,707.36238)"
           style="font-style:normal;font-variant:normal;font-weight:normal;font-stretch:normal;font-size:3.175px;line-height:1;font-family:'Kode Mono';-inkscape-font-specification:'Kode Mono';font-variant-ligatures:normal;font-variant-position:normal;font-variant-caps:normal;font-variant-numeric:normal;font-variant-alternates:normal;font-variant-east-asian:normal;font-feature-settings:normal;text-indent:0;text-align:justify;text-decoration:none;text-decoration-line:none;text-decoration-style:solid;text-decoration-color:#000000;letter-spacing:normal;word-spacing:normal;text-transform:none;writing-mode:lr-tb;direction:ltr;text-orientation:mixed;dominant-baseline:auto;baseline-shift:baseline;white-space:pre;shape-inside:url(#rect442-4);shape-padding:0;shape-margin:0;inline-size:0;display:inline;opacity:0.999;vector-effect:none;fill:#ffffff;fill-opacity:1;stroke:none;stroke-width:0.529167;stroke-linecap:butt;stroke-linejoin:miter;stroke-miterlimit:4;stroke-dasharray:none;stroke-dashoffset:5.29167;stroke-opacity:1;stop-color:#000000"
           id="text442-7"
           xml:space="preserve"><tspan
             x="10"
             y="60.307812"
             id="tspan7">HEX 4db5ea</tspan></text></g><g
         id="g826"
         transform="translate(-30.690765,4.5908691)"><rect
           style="display:inline;fill:#6e55f5;fill-opacity:1;stroke:none;stroke-width:0.782066;stroke-opacity:1"
           id="rect355-4"
           width="27.733084"
           height="28.310884"
           x="-562.59631"
           y="762.28485"
           rx="3.0102026"
           ry="3.0102026" /><text
           transform="translate(-570.46885,707.36238)"
           style="font-style:normal;font-variant:normal;font-weight:normal;font-stretch:normal;font-size:3.175px;line-height:1;font-family:'Kode Mono';-inkscape-font-specification:'Kode Mono';font-variant-ligatures:normal;font-variant-position:normal;font-variant-caps:normal;font-variant-numeric:normal;font-variant-alternates:normal;font-variant-east-asian:normal;font-feature-settings:normal;text-indent:0;text-align:justify;text-decoration:none;text-decoration-line:none;text-decoration-style:solid;text-decoration-color:#000000;letter-spacing:normal;word-spacing:normal;text-transform:none;writing-mode:lr-tb;direction:ltr;text-orientation:mixed;dominant-baseline:auto;baseline-shift:baseline;white-space:pre;shape-inside:url(#rect443-6);shape-padding:0;shape-margin:0;inline-size:0;display:inline;opacity:0.999;vector-effect:none;fill:#ffffff;fill-opacity:1;stroke:none;stroke-width:0.529167;stroke-linecap:butt;stroke-linejoin:miter;stroke-miterlimit:4;stroke-dasharray:none;stroke-dashoffset:5.29167;stroke-opacity:1;stop-color:#000000"
           id="text443-9"
           xml:space="preserve"><tspan
             x="10"
             y="60.307812"
             id="tspan8">HEX 6e55f5</tspan></text></g><g
         id="g825"
         transform="translate(-31.333612,4.7711059)"><rect
           style="display:inline;fill:#99de81;fill-opacity:1;stroke:none;stroke-width:0.782066;stroke-opacity:1"
           id="rect356-7"
           width="27.733084"
           height="28.310884"
           x="-529.4093"
           y="762.10461"
           rx="3.0102026"
           ry="3.0102026" /><text
           transform="translate(-536.91755,707.81902)"
           style="font-style:normal;font-variant:normal;font-weight:normal;font-stretch:normal;font-size:3.175px;line-height:1;font-family:'Kode Mono';-inkscape-font-specification:'Kode Mono';font-variant-ligatures:normal;font-variant-position:normal;font-variant-caps:normal;font-variant-numeric:normal;font-variant-alternates:normal;font-variant-east-asian:normal;font-feature-settings:normal;text-indent:0;text-align:justify;text-decoration:none;text-decoration-line:none;text-decoration-style:solid;text-decoration-color:#000000;letter-spacing:normal;word-spacing:normal;text-transform:none;writing-mode:lr-tb;direction:ltr;text-orientation:mixed;dominant-baseline:auto;baseline-shift:baseline;white-space:pre;shape-inside:url(#rect446-0);shape-padding:0;shape-margin:0;inline-size:0;display:inline;opacity:0.999;vector-effect:none;fill:#1c3e10;fill-opacity:1;stroke:none;stroke-width:0.529167;stroke-linecap:butt;stroke-linejoin:miter;stroke-miterlimit:4;stroke-dasharray:none;stroke-dashoffset:5.29167;stroke-opacity:1;stop-color:#000000"
           id="text444-6"
           xml:space="preserve"><tspan
             x="10"
             y="60.307812"
             id="tspan9">HEX 99de81</tspan></text></g><g
         id="g824"
         transform="translate(-30.30437,4.7711059)"><rect
           style="display:inline;fill:#e073e5;fill-opacity:1;stroke:none;stroke-width:0.782066;stroke-opacity:1"
           id="rect357-7"
           width="27.733084"
           height="28.310884"
           x="-497.89438"
           y="762.10461"
           rx="3.0102026"
           ry="3.0102026" /><text
           transform="translate(-504.71626,707.81902)"
           style="font-style:normal;font-variant:normal;font-weight:normal;font-stretch:normal;font-size:3.175px;line-height:1;font-family:'Kode Mono';-inkscape-font-specification:'Kode Mono';font-variant-ligatures:normal;font-variant-position:normal;font-variant-caps:normal;font-variant-numeric:normal;font-variant-alternates:normal;font-variant-east-asian:normal;font-feature-settings:normal;text-indent:0;text-align:justify;text-decoration:none;text-decoration-line:none;text-decoration-style:solid;text-decoration-color:#000000;letter-spacing:normal;word-spacing:normal;text-transform:none;writing-mode:lr-tb;direction:ltr;text-orientation:mixed;dominant-baseline:auto;baseline-shift:baseline;white-space:pre;shape-inside:url(#rect447-3);shape-padding:0;shape-margin:0;inline-size:0;display:inline;opacity:0.999;vector-effect:none;fill:#ffffff;fill-opacity:1;stroke:none;stroke-width:0.529167;stroke-linecap:butt;stroke-linejoin:miter;stroke-miterlimit:4;stroke-dasharray:none;stroke-dashoffset:5.29167;stroke-opacity:1;stop-color:#000000"
           id="text445-8"
           xml:space="preserve"><tspan
             x="10"
             y="60.307812"
             id="tspan10">HEX e073e5</tspan></text></g><g
         id="g823"
         transform="translate(-31.012189,4.7711059)"><rect
           style="display:inline;fill:#f5cd50;fill-opacity:1;stroke:none;stroke-width:0.782066;stroke-opacity:1"
           id="rect358-0"
           width="27.733084"
           height="28.310884"
           x="-464.6424"
           y="762.10461"
           rx="3.0102026"
           ry="3.0102026" /><text
           transform="translate(-472.51496,707.81902)"
           style="font-style:normal;font-variant:normal;font-weight:normal;font-stretch:normal;font-size:3.175px;line-height:1;font-family:'Kode Mono';-inkscape-font-specification:'Kode Mono';font-variant-ligatures:normal;font-variant-position:normal;font-variant-caps:normal;font-variant-numeric:normal;font-variant-alternates:normal;font-variant-east-asian:normal;font-feature-settings:normal;text-indent:0;text-align:justify;text-decoration:none;text-decoration-line:none;text-decoration-style:solid;text-decoration-color:#000000;letter-spacing:normal;word-spacing:normal;text-transform:none;writing-mode:lr-tb;direction:ltr;text-orientation:mixed;dominant-baseline:auto;baseline-shift:baseline;white-space:pre;shape-inside:url(#rect448-2);shape-padding:0;shape-margin:0;inline-size:0;display:inline;opacity:0.999;vector-effect:none;fill:#5e4806;fill-opacity:1;stroke:none;stroke-width:0.529167;stroke-linecap:butt;stroke-linejoin:miter;stroke-miterlimit:4;stroke-dasharray:none;stroke-dashoffset:5.29167;stroke-opacity:1;stop-color:#000000"
           id="text446-2"
           xml:space="preserve"><tspan
             x="10"
             y="60.307812"
             id="tspan11">HEX f5cd50</tspan></text></g></g></g></svg>
